<svg width="130" height="44" viewBox="0 0 130 44" fill="none" xmlns="http://www.w3.org/2000/svg">
<path d="M8.991 32.225C9.62 32.225 9.916 32.188 10.545 32.077V35C9.62 35.185 9.028 35.222 8.251 35.222C5.143 35.222 3.256 34.038 3.256 29.672V19.127H0.518V16.13H3.256V10.062H6.882V16.13H10.508V19.127H6.882V29.783C6.882 31.781 7.437 32.225 8.991 32.225ZM25.9572 27.711V16.13H29.5832V35H25.9572V32.632H25.8832C24.8842 34.075 22.9232 35.518 19.6672 35.518C16.1892 35.518 13.3772 33.52 13.3772 29.191V16.13H17.0032V28.192C17.0032 30.745 18.1132 32.447 20.8512 32.447C23.9592 32.447 25.9572 30.56 25.9572 27.711ZM43.5672 15.575C47.0452 15.575 49.8572 17.573 49.8572 21.902V35H46.2312V22.901C46.2312 20.385 45.1212 18.683 42.3832 18.683C39.2752 18.683 37.2772 20.57 37.2772 23.419V35H33.6512V16.13H37.2772V18.498H37.3512C38.3502 17.055 40.3112 15.575 43.5672 15.575ZM71.0932 25.158C71.0932 25.676 71.0932 26.231 71.0562 26.527H56.5522C56.6262 29.672 58.4762 32.595 62.2132 32.595C65.5432 32.595 66.8382 30.449 67.1712 29.191H70.8712C69.8722 32.817 67.0972 35.555 62.1392 35.555C56.1452 35.555 52.8152 31.3 52.8152 25.528C52.8152 19.608 56.3672 15.538 62.1392 15.538C67.8742 15.538 71.0932 19.312 71.0932 25.158ZM56.5522 23.678H67.3192C67.3192 20.718 65.2472 18.498 62.0282 18.498C58.9942 18.498 56.7742 20.57 56.5522 23.678ZM81.5931 35.518C75.8581 35.518 73.0091 32.558 72.8981 28.71H76.5611C76.7091 30.893 78.0411 32.595 81.5561 32.595C84.7381 32.595 85.5891 31.189 85.5891 29.82C85.5891 27.452 83.0731 27.193 80.6311 26.675C77.3381 25.898 73.5641 24.936 73.5641 21.014C73.5641 17.758 76.1911 15.575 80.7421 15.575C85.9221 15.575 88.4011 18.35 88.6601 21.606H84.9971C84.7381 20.163 83.9611 18.498 80.8161 18.498C78.3741 18.498 77.3381 19.46 77.3381 20.866C77.3381 22.827 79.4471 23.012 82.1111 23.604C85.5891 24.418 89.3631 25.417 89.3631 29.635C89.3631 33.298 86.5511 35.518 81.5931 35.518ZM98.9617 32.225C99.5907 32.225 99.8867 32.188 100.516 32.077V35C99.5907 35.185 98.9987 35.222 98.2217 35.222C95.1137 35.222 93.2267 34.038 93.2267 29.672V19.127H90.4887V16.13H93.2267V10.062H96.8527V16.13H100.479V19.127H96.8527V29.783C96.8527 31.781 97.4077 32.225 98.9617 32.225ZM112.265 15.686C112.931 15.686 113.449 15.723 114.004 15.797V19.275C113.56 19.201 113.227 19.164 112.783 19.164C109.49 19.164 107.122 21.643 107.122 25.232V35H103.496V16.13H107.122V19.719H107.196C108.195 17.351 109.712 15.686 112.265 15.686Z" fill="white"/>
<circle cx="124" cy="12" r="6" fill="#FFBF19"/>
</svg>
